<?xml version="1.0" standalone="no"?>
<svg xmlns:xlink="http://www.w3.org/1999/xlink" xmlns="http://www.w3.org/2000/svg" width="128" height="128" viewBox="0 0 1024 1024" class="icon" version="1.1"><path d="M518.4 512m-262.4 0a262.4 262.4 0 1 0 524.8 0 262.4 262.4 0 1 0-524.8 0Z" fill="#DF4E38"/><path d="M313.6 435.2h-32c-6.4 0-6.4-6.4-6.4-6.4 0-6.4 6.4-6.4 6.4-6.4 44.8 0 83.2 0 134.4-25.6 57.6-38.4 96-89.6 108.8-128-6.4-12.8 0-19.2 6.4-12.8 6.4 0 6.4 6.4 6.4 12.8-12.8 38.4-51.2 96-115.2 134.4-38.4 25.6-76.8 32-108.8 32z" fill="#FDD000"/><path d="M268.8 518.4C262.4 518.4 256 512 256 512c0-6.4 6.4-6.4 6.4-6.4 38.4 0 153.6-32 198.4-64 76.8-51.2 102.4-128 115.2-160 0-6.4 6.4-6.4 12.8-6.4s6.4 6.4 6.4 12.8c-6.4 25.6-38.4 102.4-115.2 160-51.2 32-160 70.4-211.2 70.4z" fill="#FDD000"/><path d="M307.2 601.6h-32c-6.4 0-6.4-6.4-6.4-12.8s6.4-6.4 12.8-6.4c64 12.8 140.8-12.8 224-70.4 89.6-64 140.8-134.4 147.2-198.4 0-6.4 6.4-6.4 6.4-6.4 6.4 0 6.4 6.4 6.4 6.4-6.4 64-57.6 140.8-153.6 204.8-70.4 51.2-140.8 83.2-204.8 83.2z" fill="#FDD000"/><path d="M345.6 672h-32c-6.4 0-6.4-6.4-6.4-12.8s6.4-6.4 12.8-6.4c64 6.4 147.2-19.2 230.4-76.8C640 512 697.6 428.8 704 358.4c0-6.4 6.4-6.4 6.4-6.4 6.4 0 6.4 6.4 6.4 6.4-6.4 76.8-70.4 166.4-160 230.4-70.4 57.6-147.2 83.2-211.2 83.2zM441.6 742.4c-19.2 0-32 0-51.2-6.4-6.4 0-6.4-6.4-6.4-6.4 0-6.4 6.4-6.4 12.8-6.4 76.8 12.8 147.2-6.4 217.6-57.6 83.2-57.6 134.4-134.4 140.8-204.8 0-6.4 6.4-6.4 6.4-6.4 6.4 0 6.4 6.4 6.4 6.4-6.4 76.8-57.6 153.6-147.2 217.6-57.6 44.8-115.2 64-179.2 64zM300.8 390.4c-6.4 0-6.4 0-6.4-6.4s0-6.4 6.4-12.8c25.6 0 51.2-12.8 83.2-32 38.4-25.6 64-44.8 83.2-76.8 0-6.4 6.4-6.4 12.8-6.4s6.4 6.4 6.4 12.8c-25.6 38.4-51.2 57.6-96 83.2-32 19.2-57.6 32-89.6 38.4z" fill="#FDD000"/><path d="M249.6 723.2c-44.8 0-76.8-12.8-89.6-38.4-19.2-38.4 6.4-96 76.8-166.4 6.4-6.4 6.4-6.4 12.8 0s0 6.4 0 12.8c-64 64-89.6 115.2-76.8 147.2 12.8 25.6 64 32 134.4 19.2 76.8-12.8 166.4-44.8 256-96s172.8-108.8 224-166.4c51.2-51.2 70.4-96 57.6-128-12.8-25.6-76.8-32-166.4-6.4-6.4 0-6.4 0-12.8-6.4 0-6.4 0-6.4 6.4-12.8 96-25.6 166.4-12.8 185.6 25.6 19.2 32 0 83.2-57.6 147.2-51.2 51.2-128 115.2-224 160-89.6 51.2-185.6 83.2-262.4 96-25.6 6.4-44.8 12.8-64 12.8z" fill="#17A09A"/></svg>