<?xml version="1.0" standalone="no"?>
<svg xmlns="http://www.w3.org/2000/svg" xmlns:xlink="http://www.w3.org/1999/xlink" width="128" height="128" viewBox="0 0 512 512" version="1.1" xml:space="preserve">

<g id="_x36_14_x2C__sewing_heart_x2C__broken_heart_x2C__heartm_heart_x2C_">

<g>

<path d="M419.1,391.221c10.011,0,18.12,8.119,18.12,18.119c0,10.01-8.109,18.131-18.12,18.131    c-10.01,0-18.119-8.121-18.119-18.131C400.98,399.34,409.09,391.221,419.1,391.221z" style="fill:#FFD55E;"/>

<path d="M405.98,418.84c0-10,8.109-18.119,18.119-18.119c5,0,9.524,2.025,12.803,5.299    c-1.562-8.414-8.929-14.799-17.803-14.799c-10.01,0-18.119,8.119-18.119,18.119c0,5.012,2.033,9.549,5.318,12.83    C406.099,421.09,405.98,419.979,405.98,418.84z" style="fill:#E8BB49;"/>

<path d="M183.51,282.49c10.011,0,18.12,8.109,18.12,18.119s-8.109,18.121-18.12,18.121    c-10.01,0-18.119-8.111-18.119-18.121S173.5,282.49,183.51,282.49z" style="fill:#EF3E5C;"/>

<path d="M171.641,311.061c0-10.01,8.109-18.121,18.119-18.121c4.376,0,8.389,1.551,11.52,4.131    c-1.646-8.313-8.971-14.58-17.77-14.58c-10.01,0-18.119,8.109-18.119,18.119c0,5.635,2.569,10.666,6.601,13.99    C171.765,313.453,171.641,312.271,171.641,311.061z" style="fill:#E42A53;"/>

<path d="M223.721,170.28c-3.11,8.6-6.921,17.3-11.57,25.68c-7.391,13.35-16.92,25.93-29.18,36.15    c-26.61-26.21-44.771-51.89-44.771-85.25c0-34.41,28.41-62.33,63.41-62.33c15.12,0,26.649,3.55,36.27,10.64    c0,0-0.13,20.72-6.1,47.32C229.811,151.29,227.19,160.73,223.721,170.28z" style="fill:#BE0000;"/>

<path d="M151.79,156.195c0-34.41,28.41-62.33,63.41-62.33c8.602,0,16.039,1.153,22.627,3.449    c0.048-1.393,0.053-2.144,0.053-2.144c-9.62-7.09-21.149-10.64-36.27-10.64c-35,0-63.41,27.92-63.41,62.33    c0,33.36,18.16,59.04,44.771,85.25c0.846-0.706,1.677-1.425,2.497-2.152C165.034,207.562,151.79,184.678,151.79,156.195z" style="fill:#990000;"/>

<path d="M212.15,195.96c4.649-8.38,8.46-17.08,11.57-25.68c3.47-9.55,6.09-18.99,8.06-27.79    c5.97-26.6,6.1-47.32,6.1-47.32c10.561,7.77,18.851,19.81,27.15,36.11c15.85-31.16,31.7-46.75,63.399-46.75    c35.09,0,63.49,27.92,63.49,62.33c0,32.62-17.39,57.89-43.05,83.5c-23.38,23.33-53.62,46.951-83.84,76.669    c-29.48-28.979-58.96-52.149-82.06-74.919C195.23,221.89,204.76,209.31,212.15,195.96z" style="fill:#EF3E5C;"/>

<path d="M217.221,212.168c4.649-8.38,8.46-17.08,11.57-25.68c3.47-9.55,6.09-18.99,8.06-27.79    c5.97-26.6,6.1-47.32,6.1-47.32c10.561,7.77,18.851,19.81,27.15,36.11c15.85-31.16,31.7-46.75,63.399-46.75    c25.528,0,47.502,14.784,57.59,36.087c-4.888-29.642-31.055-52.295-62.66-52.295c-31.699,0-47.55,15.59-63.399,46.75    c-8.3-16.3-16.59-28.34-27.15-36.11c0,0-0.13,20.72-6.1,47.32c-1.97,8.8-4.59,18.24-8.06,27.79c-3.11,8.6-6.921,17.3-11.57,25.68    c-7.391,13.35-16.92,25.93-29.18,36.15c3.588,3.537,7.346,7.088,11.219,10.665C203.546,233.694,211.116,223.196,217.221,212.168z" style="fill:#E42A53;"/>

<path d="M257.253,412.996c-5.854,0-12.131-0.289-18.724-0.877c-28.383-2.535-56.96-10.049-80.466-21.16    c-39.599-18.715-62.285-46.172-65.608-79.402c-0.274-2.746,1.73-5.197,4.478-5.473c2.753-0.262,5.198,1.732,5.473,4.479    c3.733,37.33,34.651,59.408,59.932,71.355c51.761,24.465,113.421,24.736,127.139,15.592c7.403-4.936,0.479-17.102-2.842-22.104    c-1.527-2.301-0.9-5.404,1.4-6.932c2.302-1.527,5.404-0.9,6.932,1.4c10.371,15.623,10.393,29.064,0.058,35.955    C288.018,410.502,274.476,412.996,257.253,412.996z" style="fill:#FFD55E;"/>

<path d="M262.81,382.191c-26.041,0-29.93-16.178-29.93-25.822c0-18.244,12.056-19.662,15.75-19.662    c15.012,0,35.739,17.215,46.335,33.166c0.887,1.336,1.08,3.014,0.52,4.516c-0.561,1.5-1.806,2.643-3.351,3.07    C280.794,380.598,270.928,382.191,262.81,382.191z M248.63,346.707c-1.866,0-5.75,0-5.75,9.662c0,7.367,2.266,15.822,19.93,15.822    c5.524,0,12.075-0.861,19.542-2.566C272.071,357.049,257.25,346.707,248.63,346.707z" style="fill:#FFD55E;"/>

<path d="M290.797,377.641c-2.19,0-4.2-1.449-4.814-3.662c-0.739-2.662,0.819-5.418,3.479-6.156    c29.023-8.059,69.722-27.477,108.868-51.943c14.126-8.826,20.835-17.955,19.942-27.131c-1.979-20.348-39.584-41.654-71.186-53.717    c-1.366-0.528-2.132-0.803-2.164-0.815c-0.52-0.187-1.006-0.458-1.437-0.803c-15.845-12.68-26.045-28.87-30.317-48.12    c-2.563-11.541-2.995-23.947-1.324-37.927c0.54-4.566,1.207-8.492,1.742-11.647c0.434-2.555,0.843-4.968,0.843-5.879    c0-2.761,2.238-5,5-5s5,2.239,5,5c0,1.754-0.392,4.061-0.983,7.552c-0.517,3.044-1.16,6.833-1.671,11.155    c-1.536,12.848-1.158,24.157,1.155,34.579c3.71,16.716,12.517,30.834,26.181,41.976c0.39,0.146,0.915,0.344,1.561,0.593    c17.409,6.646,74.51,30.785,77.554,62.083c1.29,13.268-6.985,25.576-24.596,36.58c-40.511,25.32-81.148,44.674-111.492,53.098    C291.69,377.582,291.24,377.641,290.797,377.641z" style="fill:#FFD55E;"/>

<path d="M337.55,152.96h-45.3c-2.762,0-5-2.239-5-5s2.238-5,5-5h45.3c2.762,0,5,2.239,5,5    S340.312,152.96,337.55,152.96z" style="fill:#FFD55E;"/>

<path d="M337.55,189.21h-45.3c-2.762,0-5-2.239-5-5s2.238-5,5-5h45.3c2.762,0,5,2.239,5,5    S340.312,189.21,337.55,189.21z" style="fill:#FFD55E;"/>

<path d="M255.995,162.021c-0.875,0-1.762-0.23-2.567-0.713l-45.31-27.18    c-2.368-1.42-3.136-4.491-1.716-6.859c1.42-2.369,4.491-3.138,6.859-1.716l45.311,27.18c2.368,1.42,3.136,4.492,1.716,6.86    C259.351,161.155,257.693,162.021,255.995,162.021z" style="fill:#FFD55E;"/>

<path d="M246.936,189.211c-0.876,0-1.762-0.23-2.567-0.713l-45.312-27.19    c-2.367-1.421-3.135-4.493-1.714-6.86c1.422-2.367,4.493-3.134,6.86-1.714l45.31,27.189c2.368,1.42,3.136,4.492,1.715,6.86    C250.29,188.345,248.634,189.211,246.936,189.211z" style="fill:#FFD55E;"/>

<path d="M237.875,216.391c-0.875,0-1.761-0.23-2.566-0.713l-45.312-27.181    c-2.367-1.421-3.135-4.492-1.714-6.86s4.492-3.135,6.859-1.714l45.309,27.179c2.369,1.42,3.138,4.491,1.717,6.859    C241.23,215.524,239.574,216.391,237.875,216.391z" style="fill:#FFD55E;"/>

<polygon points="96.521,175.14 120.08,311.061 97.431,311.061 74.78,311.061   " style="fill:#415A6B;"/>

<polygon points="102.139,207.55 96.521,175.14 74.78,311.061 85.582,311.061   " style="fill:#2D4451;"/>

</g>

</g>

<g id="Layer_1"/>

</svg>