<?xml version="1.0" standalone="no"?>
<svg xmlns:xlink="http://www.w3.org/1999/xlink" xmlns="http://www.w3.org/2000/svg" width="128" height="128" viewBox="-4.76 0 90.341 90.341">
  <g id="book" transform="translate(-238.954 -198.443)">
    <path id="Path_126" data-name="Path 126" d="M315.7,275.08H247.187c-2.885,0-5.973,2.715-5.973,5.434,0,3.183,3.088,5.435,5.973,5.435h64.28l5.593-10.869Z" fill="#f2f2f2"/>
    <path id="Path_127" data-name="Path 127" d="M241.214,280.514c0,3.183,3.088,5.435,5.973,5.435h64.28l.9-1.743v4.578H247c-4.024,0-7.926-2.876-7.926-6.745,0-3.214,2.81-5.827,6.122-6.545C243.043,276.349,241.214,278.422,241.214,280.514Z" fill="#242c56"/>
    <path id="Path_128" data-name="Path 128" d="M246.36,275.172a5.723,5.723,0,0,0-1.166.324c-3.312.716-6.122,3.329-6.122,6.543a6.422,6.422,0,0,0,.055.766,9.166,9.166,0,0,1-.173-1.784V207.259c0-4.847,3.619-8.816,8.044-8.816-.216,0-.423.055-.638.075Z" fill="#242c56"/>
    <path id="Path_129" data-name="Path 129" d="M247.187,275.08a5.133,5.133,0,0,0-.827.092V198.518c.215-.02.422-.075.638-.075h13.673l43.972,76.637Z" fill="#44c3ff"/>
    <path id="Path_130" data-name="Path 130" d="M260.671,198.443h59.1V275.08H304.643Z" fill="#69d5ff"/>
  </g>
</svg>